<svg fill="#ffffff" height="256px" width="256px" version="1.1" id="Capa_1"
  xmlns="http://www.w3.org/2000/svg" xmlns:xlink="http://www.w3.org/1999/xlink"
  viewBox="0 0 301.79 301.79" xml:space="preserve" stroke="#ffffff" stroke-width="8.148303"
  transform="rotate(0)matrix(1, 0, 0, 1, 0, 0)"><g id="SVGRepo_bgCarrier" stroke-width="0"></g><g id="SVGRepo_tracerCarrier" stroke-linecap="round" stroke-linejoin="round" stroke="#CCCCCC" stroke-width="0.603578"></g><g id="SVGRepo_iconCarrier"> <path d="M294.289,128.299h-44.895l-16.878-43.648c-1.117-2.89-3.897-4.795-6.995-4.795H107.519c-2.641,0-5.087,1.389-6.44,3.656 l-23.979,40.175L28.884,75.471c-1.406-1.407-3.314-2.197-5.303-2.197H7.5c-4.142,0-7.5,3.358-7.5,7.5c0,4.142,3.358,7.5,7.5,7.5 h12.974l40.024,40.024H16.867c-3.714,0-6.869,2.719-7.417,6.392l-9.368,62.714c-0.322,2.159,0.312,4.35,1.736,6.004 c1.425,1.653,3.499,2.604,5.682,2.604H35.21c6.232,13.489,19.949,22.502,35.116,22.502c15.162,0,28.872-9.014,35.099-22.502h96.442 c6.229,13.489,19.943,22.502,35.108,22.502c15.161,0,28.87-9.014,35.097-22.502h22.218c4.142,0,7.5-3.358,7.5-7.5v-62.714 C301.789,131.657,298.431,128.299,294.289,128.299z M286.789,191.013h-19.904c-3.342,0-6.281,2.211-7.206,5.422 c-2.899,10.056-12.235,17.08-22.704,17.08c-10.473,0-19.815-7.024-22.717-17.081c-0.926-3.21-3.865-5.42-7.206-5.42H100.238 c-3.342,0-6.281,2.211-7.207,5.422c-2.899,10.057-12.236,17.08-22.705,17.08c-10.477,0-19.821-7.024-22.725-17.082 c-0.927-3.21-3.865-5.419-7.206-5.419H16.204l7.126-47.714h55.274c2.641,0,5.087-1.389,6.44-3.656l26.732-44.787H220.38 l16.878,43.648c1.117,2.89,3.897,4.795,6.995,4.795h42.536V191.013z"></path> </g></svg>